<?xml version="1.0" ?><svg style="enable-background:new 0 0 100 100;" version="1.1" viewBox="0 0 100 100" xml:space="preserve" xmlns="http://www.w3.org/2000/svg" xmlns:xlink="http://www.w3.org/1999/xlink"><g id="hairdryer"/><g id="scissor"/><g id="razor"/><g id="razor_blade_1_"/><g id="comb"/><g id="shaving_machine"/><g id="barbershop"/><g id="barber_pole"><path d="M72,74h-2V26h2c2.2,0,4-1.8,4-4s-1.8-4-4-4h-0.1c-0.5-3.4-3.4-6-6.9-6h-1.1c-0.5-4.5-4.3-8-8.9-8H45c-4.6,0-8.4,3.5-8.9,8   H35c-3.5,0-6.4,2.6-6.9,6H28c-2.2,0-4,1.8-4,4s1.8,4,4,4h2v48h-2c-2.2,0-4,1.8-4,4s1.8,4,4,4h0.1c0.5,3.4,3.4,6,6.9,6h1.1   c0.5,4.5,4.3,8,8.9,8h10c4.6,0,8.4-3.5,8.9-8H65c3.5,0,6.4-2.6,6.9-6H72c2.2,0,4-1.8,4-4S74.2,74,72,74z M68,44.2l-36,9.5v-7.9   l36-9.5V44.2z M32,55.8l36-9.5v7.9l-36,9.5V55.8z M68,34.2l-36,9.5v-7.9l36-9.5V34.2z M32,65.8l36-9.5v7.9l-36,9.5V65.8z M68,66.3   V74H38.7L68,66.3z M45,6h10c3.5,0,6.4,2.6,6.9,6H38.1C38.6,8.6,41.5,6,45,6z M35,14h2h26h2c2.4,0,4.4,1.7,4.9,4H30.1   C30.6,15.7,32.6,14,35,14z M26,22c0-1.1,0.9-2,2-2h1h42h1c1.1,0,2,0.9,2,2s-0.9,2-2,2h-3H31h-3C26.9,24,26,23.1,26,22z M61.3,26   L32,33.7V26H61.3z M55,94H45c-3.5,0-6.4-2.6-6.9-6h23.9C61.4,91.4,58.5,94,55,94z M65,86h-2H37h-2c-2.4,0-4.4-1.7-4.9-4h39.8   C69.4,84.3,67.4,86,65,86z M72,80h-1H29h-1c-1.1,0-2-0.9-2-2s0.9-2,2-2h3h38h3c1.1,0,2,0.9,2,2S73.1,80,72,80z"/></g><g id="hairstylist"/><g id="kids"/><g id="mature"/><g id="woman"/><g id="moustache"/><g id="hair_gel"/><g id="shampoo"/><g id="mirror"/><g id="spray"/><g id="apron"/><g id="chair"/><g id="mask"/></svg>